<svg width="34" height="34" viewBox="0 0 34 34" fill="none" xmlns="http://www.w3.org/2000/svg">
<g clip-path="url(#clip0_164_48)">
<path d="M17 0.42074C7.60856 0.42074 0 8.03568 0 17.4207C0 24.9358 4.8705 31.3055 11.6206 33.5527C12.4738 33.7131 12.7819 33.1872 12.7819 32.7324C12.7819 32.3287 12.7723 31.2609 12.7659 29.8435C8.03463 30.8677 7.038 27.5581 7.038 27.5581C6.26344 25.5988 5.14569 25.0729 5.14569 25.0729C3.60719 24.0221 5.26788 24.0444 5.26788 24.0444C6.97213 24.1602 7.86888 25.7922 7.86888 25.7922C9.38506 28.3932 11.8469 27.6409 12.8212 27.2032C12.9699 26.1077 13.413 25.3544 13.8954 24.9347C10.1214 24.5087 6.15294 23.0477 6.15294 16.5336C6.15294 14.6731 6.81169 13.158 7.90075 11.968C7.71269 11.5419 7.13681 9.81005 8.05056 7.4683C8.05056 7.4683 9.47325 7.01461 12.7256 9.21186C14.0866 8.83468 15.5316 8.64662 16.9756 8.63705C18.4206 8.64662 19.8645 8.83574 21.2256 9.21186C24.4587 7.01461 25.8804 7.4683 25.8804 7.4683C26.7931 9.81005 26.2172 11.5409 26.0514 11.968C27.1299 13.158 27.7886 14.6742 27.7886 16.5336C27.7886 23.0626 23.8149 24.5023 20.0366 24.9177C20.6274 25.4267 21.1809 26.4732 21.1809 28.0617C21.1809 30.3354 21.1597 32.1672 21.1597 32.7207C21.1597 33.1627 21.4572 33.694 22.3327 33.5229C29.1327 31.2991 33.9979 24.9241 33.9979 17.4197C33.9979 8.03462 26.3893 0.419678 16.9979 0.419678L17 0.42074Z" fill="#2E2E2E"/>
</g>
<defs>
<clipPath id="clip0_164_48">
<rect width="34" height="34" fill="white"/>
</clipPath>
</defs>
</svg>
